<!DOCTYPE svg PUBLIC "-//W3C//DTD SVG 20010904//EN" "http://www.w3.org/TR/2001/REC-SVG-20010904/DTD/svg10.dtd">
<svg version="1.0" xmlns="http://www.w3.org/2000/svg" width="473px" height="473px" viewBox="0 0 4730 4730" preserveAspectRatio="xMidYMid meet">
<g id="layer101" fill="#23a2e7" stroke="none">
<path d="M1135 4521 c-48 -31 -283 -273 -295 -305 -23 -63 -16 -73 343 -434 188 -189 354 -350 369 -358 59 -31 94 -18 185 66 100 94 81 91 649 88 l489 -3 47 -23 c27 -13 77 -50 113 -83 58 -52 70 -59 107 -59 42 0 44 1 395 352 194 193 357 365 364 380 23 57 2 91 -159 251 -141 139 -151 147 -188 147 -21 0 -45 -4 -52 -9 -8 -4 -129 -123 -270 -262 -184 -182 -271 -261 -307 -279 l-50 -25 -493 -3 c-487 -3 -493 -2 -545 19 -43 18 -97 66 -312 279 -143 142 -270 263 -282 269 -32 16 -74 13 -108 -8z"/>
<path d="M4211 3863 c-32 -6 -709 -685 -727 -729 -19 -46 -4 -85 57 -152 29 -31 64 -82 78 -112 l26 -55 0 -485 c0 -565 3 -544 -106 -664 -54 -58 -61 -71 -61 -106 0 -21 5 -47 11 -57 5 -10 166 -174 358 -366 435 -433 379 -416 607 -185 68 70 130 136 135 147 13 24 14 81 2 100 -5 8 -122 127 -260 265 -209 211 -255 262 -278 311 l-28 60 0 495 0 495 23 50 c18 38 84 111 276 305 140 140 259 265 265 277 15 30 14 69 -3 101 -20 37 -290 302 -309 302 -9 0 -21 2 -29 4 -7 2 -24 1 -37 -1z"/>
<path d="M438 3822 c-24 -21 -93 -88 -155 -149 -182 -180 -188 -161 150 -502 224 -225 267 -274 283 -316 17 -46 19 -89 22 -489 3 -448 -2 -533 -34 -603 -11 -23 -122 -144 -279 -303 -176 -177 -264 -274 -267 -291 -9 -52 16 -89 160 -234 152 -151 178 -167 237 -145 25 9 552 528 673 663 46 51 52 62 52 101 0 40 -6 50 -60 110 -113 125 -112 119 -108 691 3 452 3 461 25 508 13 26 45 71 71 100 27 29 54 62 61 74 14 28 14 78 0 106 -16 31 -669 685 -701 703 -46 24 -83 18 -130 -24z"/>
</g>
<g id="layer102" fill="#1da4fa" stroke="none">
<path d="M1154 4518 c-4 -7 -3 -8 4 -4 12 7 16 16 8 16 -3 0 -8 -5 -12 -12z"/>
<path d="M1094 4468 l-29 -33 33 29 c17 17 32 31 32 33 0 8 -8 1 -36 -29z"/>
<path d="M3460 4490 c0 -7 3 -10 7 -7 3 4 3 10 0 14 -4 3 -7 0 -7 -7z"/>
<path d="M3483 4460 c-12 -10 -24 -29 -28 -40 -4 -11 -10 -18 -15 -15 -5 3 -10 -1 -13 -7 -2 -7 -8 -9 -13 -5 -4 4 -2 18 5 30 13 20 13 21 -2 8 -10 -7 -17 -21 -17 -30 -1 -9 -14 -32 -31 -51 -23 -27 -32 -32 -38 -21 -6 9 -10 10 -16 2 -3 -7 -24 -22 -44 -36 -47 -29 -73 -54 -66 -65 3 -4 -2 -13 -10 -20 -8 -7 -15 -22 -15 -34 0 -17 -2 -18 -10 -6 -9 13 -12 12 -25 -4 -8 -11 -15 -29 -16 -40 0 -12 -3 -15 -6 -8 -7 19 -33 -5 -34 -32 0 -11 -3 -15 -6 -8 -4 10 -8 10 -21 0 -13 -11 -14 -11 -7 2 5 8 -13 -4 -40 -27 -28 -23 -70 -52 -95 -65 l-45 -23 -495 -3 -495 -2 -57 27 c-44 22 -103 73 -258 226 -111 108 -207 197 -213 197 -7 0 3 -12 21 -26 45 -36 39 -74 -7 -45 -10 7 -19 4 -27 -7 -7 -9 -16 -14 -20 -10 -4 4 -1 14 5 22 8 10 9 16 1 21 -5 3 -10 1 -10 -4 0 -23 -29 -9 -42 19 -7 17 -17 30 -23 31 -5 1 -19 2 -30 3 -11 0 -20 7 -20 15 0 20 -54 26 -61 6 -3 -8 -10 -15 -16 -15 -10 0 -58 -49 -58 -59 0 -4 -18 -24 -39 -46 -26 -27 -35 -42 -28 -47 8 -5 6 -8 -4 -8 -9 0 -20 -8 -23 -17 -16 -44 -32 -63 -44 -51 -9 9 -12 7 -12 -7 0 -11 -13 -29 -29 -40 -33 -21 -28 -39 17 -56 13 -5 20 -13 17 -19 -3 -5 0 -7 8 -4 15 5 87 -82 91 -112 3 -20 492 -511 528 -530 59 -31 94 -18 185 66 100 94 81 91 649 88 l489 -3 47 -23 c27 -13 77 -50 113 -83 58 -52 70 -59 107 -59 42 0 45 3 300 257 142 142 254 259 248 261 -7 3 -5 11 6 23 9 10 20 17 23 14 4 -2 20 8 37 22 26 22 26 23 3 10 -16 -10 -31 -12 -40 -6 -11 7 -9 9 8 9 25 0 39 16 21 23 -7 3 -4 6 8 6 23 1 96 71 74 71 -11 0 -11 3 -2 12 7 7 12 19 12 28 0 13 -1 13 -10 0 -12 -19 -13 -4 -1 19 7 13 5 21 -10 31 -10 8 -19 20 -19 27 0 15 -32 12 -53 -5 -12 -10 -16 -9 -21 4 -8 22 4 40 15 23 7 -11 9 -11 10 -1 2 15 2 49 0 60 -2 16 -58 72 -64 65 -4 -3 -17 3 -30 15 -12 11 -35 24 -50 28 -18 4 -24 9 -17 14 14 9 -44 60 -69 60 -9 0 -27 -9 -38 -20z m109 -82 c-7 -26 -28 -33 -46 -15 -13 13 -13 17 2 35 20 25 52 10 44 -20z m-2104 -100 c16 -16 15 -38 -1 -38 -19 0 -36 20 -30 36 6 17 15 18 31 2z m177 -178 c3 -5 4 -10 1 -10 -3 0 -8 5 -11 10 -3 6 -4 10 -1 10 3 0 8 -4 11 -10z m1305 -104 c0 -3 -5 -8 -12 -12 -7 -4 -8 -3 -4 4 7 12 16 16 16 8z m-323 -403 c-4 -3 -10 -3 -14 0 -3 4 0 7 7 7 7 0 10 -3 7 -7z"/>
<path d="M3645 4460 c10 -11 20 -20 23 -20 3 0 -3 9 -13 20 -10 11 -20 20 -23 20 -3 0 3 -9 13 -20z"/>
<path d="M1305 4460 c3 -5 8 -10 11 -10 3 0 2 5 -1 10 -3 6 -8 10 -11 10 -3 0 -2 -4 1 -10z"/>
<path d="M1335 4430 c3 -5 8 -10 11 -10 3 0 2 5 -1 10 -3 6 -8 10 -11 10 -3 0 -2 -4 1 -10z"/>
<path d="M3680 4427 c0 -2 21 -21 48 -42 35 -30 43 -34 31 -15 -13 20 -79 67 -79 57z"/>
<path d="M979 4353 l-24 -28 28 24 c25 23 32 31 24 31 -2 0 -14 -12 -28 -27z"/>
<path d="M3335 4360 c-3 -6 1 -7 9 -4 18 7 21 14 7 14 -6 0 -13 -4 -16 -10z"/>
<path d="M3795 4310 c3 -5 8 -10 11 -10 3 0 2 5 -1 10 -3 6 -8 10 -11 10 -3 0 -2 -4 1 -10z"/>
<path d="M841 4184 c0 -11 3 -14 6 -6 3 7 2 16 -1 19 -3 4 -6 -2 -5 -13z"/>
<path d="M3891 4174 c0 -11 3 -14 6 -6 3 7 2 16 -1 19 -3 4 -6 -2 -5 -13z"/>
<path d="M895 4070 c3 -5 8 -10 11 -10 3 0 2 5 -1 10 -3 6 -8 10 -11 10 -3 0 -2 -4 1 -10z"/>
<path d="M950 4015 c13 -14 26 -25 28 -25 3 0 -5 11 -18 25 -13 14 -26 25 -28 25 -3 0 5 -11 18 -25z"/>
<path d="M4212 3863 c-23 -5 -167 -139 -167 -157 -1 -6 -6 -10 -13 -8 -7 1 -11 -1 -11 -5 1 -5 1 -19 0 -32 -1 -23 -2 -24 -14 -6 -11 14 -16 15 -22 5 -6 -9 -4 -11 4 -5 9 5 12 0 9 -16 -1 -13 -6 -22 -10 -19 -3 3 -17 -5 -31 -18 -13 -13 -29 -22 -35 -20 -15 4 -422 -412 -438 -448 -19 -45 -5 -85 57 -152 29 -31 64 -82 78 -112 l26 -55 0 -485 c0 -565 3 -544 -106 -664 -54 -58 -61 -71 -61 -106 0 -21 5 -47 11 -57 5 -10 166 -174 358 -366 435 -433 379 -416 607 -185 68 70 130 136 135 147 13 24 14 81 2 100 -5 8 -122 127 -260 265 -209 211 -255 262 -278 311 l-28 60 0 495 0 495 23 50 c18 38 84 111 276 305 140 140 259 265 265 277 15 30 14 69 -3 101 -20 37 -290 302 -309 302 -9 0 -21 2 -29 4 -7 2 -23 1 -36 -1z m218 -557 c0 -3 -5 -8 -12 -12 -7 -4 -8 -3 -4 4 7 12 16 16 16 8z"/>
<path d="M488 3843 c7 -3 16 -2 19 1 4 3 -2 6 -13 5 -11 0 -14 -3 -6 -6z"/>
<path d="M558 3823 c-3 -7 -116 -51 -145 -57 -7 -1 -23 -12 -36 -24 -13 -12 -28 -22 -33 -22 -11 0 -130 -112 -160 -150 l-19 -25 30 25 c16 14 25 18 19 10 -17 -25 -37 -98 -31 -114 3 -8 1 -17 -6 -19 -7 -2 108 -125 254 -273 225 -228 269 -277 285 -319 17 -46 19 -89 22 -489 3 -448 -2 -533 -34 -603 -11 -23 -122 -144 -279 -303 -176 -177 -264 -274 -267 -291 -9 -52 16 -89 160 -234 152 -151 178 -167 237 -145 25 9 552 528 673 663 46 51 52 62 52 101 0 40 -6 50 -60 110 -113 125 -112 119 -108 691 3 452 3 461 25 508 13 26 45 71 71 100 27 29 54 62 61 74 14 28 14 78 0 106 -17 33 -661 677 -671 671 -5 -3 -15 -1 -22 6 -8 6 -16 7 -18 3z"/>
</g>
<g id="layer103" fill="#339dfb" stroke="none">
<path d="M3818 3173 c9 -7 31 -12 47 -12 17 0 38 5 47 12 14 11 7 13 -47 13 -54 0 -61 -2 -47 -13z"/>
<path d="M583 3163 c2 -10 8 -26 12 -35 5 -14 2 -18 -14 -18 -22 0 -29 -24 -11 -35 6 -3 10 -11 10 -18 0 -6 -16 4 -35 23 -19 19 -35 32 -35 29 0 -3 21 -25 46 -49 26 -25 43 -38 39 -30 -6 10 -1 8 13 -4 25 -21 31 -36 7 -16 -31 26 -13 -4 35 -57 86 -97 84 -86 88 -587 3 -448 -2 -533 -34 -603 -11 -23 -122 -144 -279 -303 -176 -177 -264 -274 -267 -291 -9 -52 16 -89 160 -234 152 -151 178 -167 237 -145 25 9 552 528 673 663 46 51 52 62 52 101 0 40 -6 50 -60 110 -113 125 -112 119 -108 691 l3 460 29 58 c15 33 45 74 65 92 20 18 33 37 29 41 -4 4 -14 1 -22 -5 -19 -16 -57 -5 -49 15 4 10 -2 14 -21 14 -21 0 -26 5 -26 25 0 20 -6 27 -30 32 -23 4 -30 11 -30 30 0 15 -4 22 -11 17 -6 -3 -93 -1 -192 6 -133 10 -187 17 -199 28 -18 16 -23 9 -19 -25 1 -8 -5 -10 -14 -7 -8 3 -15 12 -15 19 0 7 -7 16 -16 19 -12 5 -15 2 -11 -11z"/>
<path d="M1115 3140 c-3 -6 1 -17 9 -26 15 -14 16 -14 16 5 0 23 -16 36 -25 21z"/>
<path d="M3959 3136 c-4 -4 -102 -14 -156 -15 -16 -1 -21 -5 -16 -17 5 -13 -1 -15 -43 -9 -27 4 -53 11 -59 16 -15 14 -34 10 -58 -11 -12 -11 -26 -19 -32 -16 -6 2 -10 -16 -9 -50 1 -55 -9 -67 -35 -41 -11 10 -11 8 -2 -10 12 -23 29 -37 46 -38 6 -1 9 -7 7 -15 -2 -7 7 -36 20 -64 23 -51 23 -51 23 -536 0 -565 3 -544 -106 -664 -54 -58 -61 -71 -61 -106 0 -21 5 -47 11 -57 5 -10 166 -174 358 -365 435 -434 379 -417 607 -186 68 70 130 136 135 147 13 24 14 81 2 100 -5 8 -122 127 -260 265 -209 211 -255 262 -278 311 l-28 60 0 495 0 495 27 56 c16 31 37 64 48 74 11 10 20 23 20 28 0 6 -10 1 -23 -11 -38 -36 -61 -27 -32 12 21 28 18 46 -7 47 -20 1 -19 2 8 14 31 14 74 65 54 65 -6 0 -15 -11 -21 -24 -12 -26 -82 -55 -72 -30 3 8 9 14 14 14 5 0 9 5 9 10 0 6 -16 10 -37 10 -35 0 -35 1 -19 19 15 17 15 19 1 25 -19 7 -30 8 -36 2z m111 -200 c0 -3 -5 -8 -12 -12 -7 -4 -8 -3 -4 4 7 12 16 16 16 8z"/>
<path d="M4080 3110 c0 -7 3 -10 7 -7 3 4 3 10 0 14 -4 3 -7 0 -7 -7z"/>
</g>
<g id="layer104" fill="#5394fc" stroke="none">
<path d="M3649 2215 c-5 -434 -5 -434 -110 -549 -54 -58 -61 -71 -61 -106 0 -21 5 -47 11 -57 5 -10 166 -174 358 -365 435 -434 379 -417 607 -186 68 70 130 136 135 147 13 24 14 81 2 100 -5 8 -121 127 -259 265 -150 151 -258 268 -271 293 -35 69 -40 118 -42 381 -1 240 -2 252 -20 252 -10 0 -19 -7 -19 -15 0 -8 -4 -15 -10 -15 -5 0 -10 18 -10 41 0 28 -4 38 -12 33 -8 -5 -9 -2 -5 10 4 11 3 15 -4 10 -6 -4 -15 -1 -20 7 -6 11 -12 9 -30 -6 l-22 -20 18 28 c18 29 15 33 -14 17 -14 -7 -21 -4 -31 14 -18 35 -94 40 -129 9 -3 -2 4 -10 15 -18 18 -13 18 -14 -3 -8 -16 4 -23 13 -23 30 0 18 -4 24 -15 19 -10 -4 -17 4 -24 27 -6 21 -10 -96 -12 -338z"/>
<path d="M742 2210 c-2 -306 -9 -383 -38 -447 -11 -23 -124 -146 -279 -303 -176 -177 -264 -274 -267 -291 -9 -52 16 -89 160 -234 152 -151 178 -167 237 -145 25 9 552 528 673 663 46 51 52 62 52 101 0 40 -6 50 -59 110 -105 115 -111 138 -111 441 0 260 -6 335 -26 335 -8 0 -14 5 -14 10 0 6 -4 10 -10 10 -5 0 -10 -8 -10 -18 0 -42 -46 -56 -56 -17 -8 33 -19 32 -34 -5 -18 -44 -32 -48 -28 -9 l3 34 -57 2 c-39 1 -60 -2 -68 -12 -7 -8 -18 -15 -24 -15 -7 0 -6 3 2 9 10 6 10 10 -1 20 -12 9 -16 5 -23 -26 -8 -38 -8 -38 -14 22 -4 33 -7 -73 -8 -235z m327 145 l0 -20 -9 20 c-5 11 -9 27 -9 35 -1 13 0 13 9 0 5 -8 9 -24 9 -35z"/>
<path d="M1575 1230 c-11 -4 -179 -168 -374 -363 l-354 -355 6 -48 c5 -44 11 -53 143 -186 77 -77 151 -146 166 -154 31 -16 76 -18 98 -4 8 5 127 122 266 259 209 209 261 255 310 278 l59 28 495 0 495 0 55 -28 c42 -21 119 -92 315 -288 330 -328 293 -320 504 -115 57 56 116 119 132 140 37 50 38 99 4 145 -13 19 -172 181 -353 362 -395 394 -377 384 -497 274 -33 -31 -83 -67 -112 -80 l-52 -25 -493 0 -493 0 -53 25 c-29 13 -76 46 -105 73 -76 72 -110 85 -162 62z"/>
</g>
<g id="layer105" fill="#50afeb" stroke="none">
<path d="M1220 4516 c0 -8 -3 -21 -6 -30 -9 -23 23 -21 35 2 7 14 5 21 -10 30 -15 10 -19 9 -19 -2z"/>
<path d="M3543 4523 c4 -3 10 -3 14 0 3 4 0 7 -7 7 -7 0 -10 -3 -7 -7z"/>
<path d="M974 4348 l-19 -23 23 19 c21 18 27 26 19 26 -2 0 -12 -10 -23 -22z"/>
<path d="M3890 4180 c0 -7 3 -10 7 -7 3 4 3 10 0 14 -4 3 -7 0 -7 -7z"/>
</g>
<g id="layer106" fill="#38c3f0" stroke="none">
</g>
<g id="layer107" fill="#728bfc" stroke="none">
<path d="M810 1663 c0 -14 -10 -18 -47 -20 -26 -1 -49 -6 -51 -12 -2 -6 -18 -11 -36 -11 -29 0 -77 -33 -68 -46 1 -2 -1 -4 -5 -5 -5 0 -18 -9 -29 -20 -15 -14 -23 -16 -26 -9 -2 8 -15 3 -35 -14 -17 -14 -35 -26 -40 -26 -20 0 -310 -305 -315 -331 -10 -52 16 -89 160 -234 151 -151 178 -167 236 -145 35 13 291 267 291 288 0 10 5 17 10 18 22 2 45 17 44 28 -3 17 12 46 23 46 6 0 5 -6 -2 -15 -7 -8 -8 -15 -3 -15 13 0 283 279 283 293 0 6 -56 -45 -125 -114 -68 -68 -132 -126 -142 -128 -18 -3 17 44 72 99 14 14 25 29 25 34 0 4 29 36 65 71 36 36 65 72 65 82 0 10 -14 27 -30 38 -16 11 -30 28 -30 39 0 15 -6 17 -35 14 -31 -3 -35 -1 -40 24 -6 24 -12 28 -40 28 -18 0 -35 4 -37 8 -1 4 -20 18 -41 30 -47 27 -97 30 -97 5z m-390 -236 c0 -1 -24 -25 -52 -52 l-53 -50 50 53 c46 48 55 57 55 49z"/>
<path d="M3703 1611 c-36 -37 -83 -52 -83 -26 0 9 -9 15 -22 15 -19 0 -20 -2 -8 -10 10 -7 11 -10 3 -11 -23 -3 -28 -4 -40 -12 -9 -5 -13 -2 -14 10 -1 10 -5 2 -8 -17 -6 -30 -1 -43 37 -99 24 -35 39 -60 33 -56 -22 13 -10 -6 24 -40 41 -42 61 -47 22 -7 -15 15 -27 31 -27 34 0 13 50 -19 70 -45 25 -32 27 -55 3 -36 -60 48 58 -78 264 -283 307 -306 274 -301 497 -76 68 70 130 136 135 147 21 38 13 88 -20 126 -17 19 -36 32 -42 28 -5 -3 -7 -1 -3 5 6 11 -10 27 -29 27 -5 0 -10 6 -10 13 0 15 -121 140 -150 153 -11 6 -5 -2 13 -18 34 -30 42 -53 17 -53 -8 0 -15 -4 -15 -10 0 -14 37 -13 42 2 5 15 28 1 28 -16 0 -22 -55 -25 -79 -5 -12 10 -20 22 -19 27 3 11 -52 66 -67 67 -5 0 -16 13 -24 29 -7 16 -21 30 -30 33 -10 2 -25 18 -35 34 -10 16 -21 27 -25 24 -5 -2 -20 4 -34 15 -25 20 -54 18 -69 -4 -6 -8 -10 -8 -15 0 -12 17 -65 27 -73 13 -5 -8 -10 -5 -14 8 -5 17 -18 21 -69 25 -34 3 -74 1 -89 -3 -16 -4 -28 -4 -28 2 0 16 -28 10 -47 -10z m614 -228 c-4 -3 -10 -3 -14 0 -3 4 0 7 7 7 7 0 10 -3 7 -7z m-527 -158 c13 -14 21 -25 18 -25 -2 0 -15 11 -28 25 -13 14 -21 25 -18 25 2 0 15 -11 28 -25z"/>
<path d="M3495 1609 c-4 -6 -5 -12 -2 -15 2 -3 7 2 10 11 7 17 1 20 -8 4z"/>
<path d="M4190 1585 c13 -14 25 -25 27 -25 2 0 -4 11 -13 25 -9 14 -21 25 -27 25 -6 0 0 -11 13 -25z"/>
<path d="M3481 1542 c-1 -26 8 -42 47 -82 27 -28 53 -50 58 -50 4 0 -13 22 -40 49 -28 28 -51 63 -56 82 l-8 34 -1 -33z"/>
<path d="M4245 1530 c10 -11 20 -18 23 -15 7 6 -18 35 -31 35 -5 0 -2 -9 8 -20z"/>
<path d="M4295 1480 c3 -5 11 -10 16 -10 6 0 7 5 4 10 -3 6 -11 10 -16 10 -6 0 -7 -4 -4 -10z"/>
<path d="M1575 1230 c-11 -4 -179 -168 -374 -363 l-354 -355 6 -48 c5 -44 11 -53 143 -186 77 -77 151 -146 166 -154 31 -16 76 -18 98 -4 8 5 127 122 266 259 209 209 261 255 310 278 l59 28 495 0 495 0 55 -28 c42 -21 119 -92 315 -288 330 -328 293 -320 504 -115 57 56 116 119 132 140 37 50 38 99 5 145 -14 18 -170 179 -349 357 -285 284 -367 357 -384 340 -3 -2 5 -7 16 -11 40 -12 24 -33 -29 -37 -55 -3 -65 9 -27 35 12 9 16 16 10 16 -7 1 -27 -13 -45 -30 -18 -18 -24 -25 -13 -18 18 13 19 13 6 -3 -7 -10 -17 -15 -23 -12 -5 3 -23 -8 -41 -26 -17 -17 -55 -42 -84 -55 l-52 -25 -493 0 -493 0 -53 25 c-29 13 -76 46 -105 73 -76 72 -110 85 -162 62z m352 -176 c-3 -3 -12 -4 -19 -1 -8 3 -5 6 6 6 11 1 17 -2 13 -5z"/>
</g>
<g id="layer108" fill="#8e80f3" stroke="none">
<path d="M1295 863 c-11 -3 -37 -21 -57 -41 -21 -20 -38 -31 -38 -24 0 7 5 12 12 12 6 0 8 3 5 6 -4 4 -13 2 -21 -5 -11 -9 -15 -9 -19 1 -3 7 -6 3 -6 -8 -1 -12 -9 -28 -18 -35 -15 -13 -16 -12 -11 9 8 27 -81 -49 -211 -182 l-84 -86 6 -46 c5 -44 12 -54 143 -186 145 -146 175 -168 221 -168 38 0 38 0 182 143 166 165 302 306 271 282 l-25 -20 19 22 c10 13 22 20 26 18 4 -2 27 14 51 37 23 22 68 53 98 67 l56 26 405 5 c223 3 368 7 322 8 -59 1 -88 6 -98 17 -12 12 -12 15 -2 16 7 1 -3 5 -22 10 -52 13 -294 13 -298 0 -6 -18 -52 -13 -52 5 0 13 -7 15 -32 10 -43 -8 -202 11 -206 24 -7 21 -45 9 -72 -22 -23 -26 -28 -28 -27 -13 3 26 -49 44 -133 44 -49 1 -61 4 -52 13 17 17 -48 38 -119 38 -34 0 -61 5 -67 13 -11 13 -106 19 -147 10z m700 -123 c13 -6 2 -7 -30 -3 -27 3 -52 7 -54 9 -9 8 65 2 84 -6z m372 -6 c-3 -3 -12 -4 -19 -1 -8 3 -5 6 6 6 11 1 17 -2 13 -5z m-182 -24 l200 -6 -225 -2 c-165 -1 -242 -6 -284 -17 -33 -9 -61 -13 -64 -10 -3 3 2 5 11 5 9 0 18 4 21 9 4 5 -4 7 -16 5 -13 -2 2 5 32 16 37 13 67 18 90 13 19 -3 125 -9 235 -13z m-77 13 c-10 -2 -26 -2 -35 0 -10 3 -2 5 17 5 19 0 27 -2 18 -5z m-311 -69 c-3 -3 -12 -4 -19 -1 -8 3 -5 6 6 6 11 1 17 -2 13 -5z"/>
<path d="M2992 824 c-11 -5 -10 -9 2 -23 13 -15 8 -16 -62 -19 -42 -2 -94 -7 -117 -12 -64 -14 -141 -39 -125 -39 13 -1 13 -2 0 -11 -10 -7 12 -10 71 -10 65 0 90 -4 99 -15 7 -8 17 -15 22 -15 6 0 33 -12 62 -26 37 -18 119 -93 311 -285 330 -328 293 -320 504 -115 215 210 215 222 -7 439 -49 49 -93 84 -96 79 -3 -5 3 -17 14 -27 11 -10 20 -24 20 -32 0 -20 -27 -16 -49 8 -17 19 -18 23 -5 36 18 19 18 37 -1 53 -19 16 -34 5 -17 -12 18 -18 15 -38 -6 -38 -9 0 -34 9 -53 19 -47 26 -195 51 -209 37 -7 -7 -13 -7 -18 -1 -7 11 -317 18 -340 9z m779 -171 c13 -16 12 -17 -3 -4 -10 7 -18 15 -18 17 0 8 8 3 21 -13z m40 -40 c13 -16 12 -17 -3 -4 -17 13 -22 21 -14 21 2 0 10 -8 17 -17z"/>
</g>
<g id="layer109" fill="#8786fb" stroke="none">
<path d="M1295 863 c-11 -3 -37 -21 -57 -41 -21 -20 -38 -31 -38 -24 0 7 5 12 12 12 6 0 8 3 5 6 -4 4 -13 2 -21 -5 -11 -9 -15 -9 -19 1 -3 7 -6 3 -6 -8 -1 -12 -9 -28 -18 -35 -15 -13 -16 -12 -11 9 7 27 -81 -49 -209 -181 -72 -73 -83 -89 -82 -118 0 -36 17 -87 19 -59 0 9 6 5 17 -11 9 -14 25 -32 37 -39 20 -12 20 -12 4 7 -10 11 -18 23 -18 28 0 4 9 -4 20 -18 11 -14 20 -28 20 -31 0 -8 38 -46 46 -46 4 0 4 8 1 19 -6 23 10 51 29 51 13 0 13 3 -2 18 -17 16 -17 17 5 20 13 2 28 -1 34 -7 18 -18 37 -12 37 12 0 19 3 17 17 -12 l16 -33 66 6 c36 3 84 8 106 11 29 5 36 4 25 -4 -12 -8 -7 -11 22 -11 20 0 44 -3 53 -6 15 -6 13 -10 -9 -29 l-26 -23 36 -7 c29 -5 39 -3 46 9 5 9 15 16 22 16 15 0 25 9 136 125 47 49 74 80 60 70 l-25 -20 19 22 c10 13 22 20 26 18 4 -2 27 14 51 37 23 22 68 53 98 67 l56 26 405 5 c223 3 368 7 322 8 -59 1 -88 6 -98 17 -12 12 -12 15 -2 16 7 1 -3 5 -22 10 -52 13 -294 13 -298 0 -6 -18 -52 -13 -52 5 0 13 -7 15 -32 10 -43 -8 -202 11 -206 24 -7 21 -45 9 -72 -22 -23 -26 -28 -28 -27 -13 3 26 -49 44 -133 44 -49 1 -61 4 -52 13 17 17 -48 38 -119 38 -34 0 -61 5 -67 13 -11 13 -106 19 -147 10z m700 -123 c13 -6 2 -7 -30 -3 -27 3 -52 7 -54 9 -9 8 65 2 84 -6z m372 -6 c-3 -3 -12 -4 -19 -1 -8 3 -5 6 6 6 11 1 17 -2 13 -5z m-182 -24 l200 -6 -225 -2 c-165 -1 -242 -6 -284 -17 -33 -9 -61 -13 -64 -10 -3 3 2 5 11 5 9 0 18 4 21 9 4 5 -4 7 -16 5 -13 -2 2 5 32 16 37 13 67 18 90 13 19 -3 125 -9 235 -13z m-77 13 c-10 -2 -26 -2 -35 0 -10 3 -2 5 17 5 19 0 27 -2 18 -5z m-311 -69 c-3 -3 -12 -4 -19 -1 -8 3 -5 6 6 6 11 1 17 -2 13 -5z"/>
<path d="M1883 703 c4 -3 10 -3 14 0 3 4 0 7 -7 7 -7 0 -10 -3 -7 -7z"/>
<path d="M2043 843 c15 -2 37 -2 50 0 12 2 0 4 -28 4 -27 0 -38 -2 -22 -4z"/>
<path d="M2143 823 c15 -2 37 -2 50 0 12 2 0 4 -28 4 -27 0 -38 -2 -22 -4z"/>
<path d="M2992 824 c-11 -5 -10 -9 2 -23 13 -15 8 -16 -62 -19 -42 -2 -94 -7 -117 -12 -64 -14 -141 -39 -125 -39 13 -1 13 -2 0 -11 -10 -7 12 -10 71 -10 65 0 90 -4 99 -15 7 -8 18 -15 24 -15 36 -1 127 -67 225 -163 73 -73 112 -104 117 -96 5 8 3 10 -6 4 -9 -5 -11 -4 -6 4 6 9 11 9 22 0 7 -6 11 -16 7 -22 -3 -5 -1 -7 5 -3 6 3 34 -17 63 -46 29 -29 49 -47 45 -40 -4 6 -2 12 3 12 6 0 11 9 11 20 0 13 9 21 28 25 15 4 35 11 45 16 13 7 35 6 71 -2 41 -9 58 -9 75 1 17 8 26 9 34 1 8 -8 8 -11 -1 -11 -7 0 -12 -4 -12 -9 0 -6 15 -7 34 -4 26 4 42 0 66 -17 23 -16 28 -25 19 -31 -7 -4 -14 -18 -16 -31 -3 -19 3 -16 37 22 22 25 37 37 34 28 -11 -31 20 -20 61 22 24 25 33 40 24 40 -8 0 -21 -6 -28 -12 -11 -11 -13 -8 -9 15 3 15 1 30 -4 33 -4 3 -6 9 -3 14 3 4 -2 25 -11 45 -17 41 -14 54 6 30 16 -20 60 -20 60 0 0 8 -9 20 -20 27 -25 16 -26 30 -2 21 9 -3 -30 42 -88 100 -57 58 -108 103 -113 100 -5 -3 1 -15 12 -27 12 -12 21 -28 21 -34 0 -19 -28 -14 -49 9 -17 19 -18 23 -5 36 18 19 18 37 -1 53 -19 16 -34 5 -17 -12 18 -18 15 -38 -6 -38 -9 0 -34 9 -53 19 -47 26 -195 51 -209 37 -7 -7 -13 -7 -18 -1 -7 11 -317 18 -340 9z m779 -171 c13 -16 12 -17 -3 -4 -10 7 -18 15 -18 17 0 8 8 3 21 -13z m40 -40 c13 -16 12 -17 -3 -4 -17 13 -22 21 -14 21 2 0 10 -8 17 -17z"/>
<path d="M1688 813 c7 -3 16 -2 19 1 4 3 -2 6 -13 5 -11 0 -14 -3 -6 -6z"/>
<path d="M2060 780 c-20 -6 -15 -8 25 -9 36 0 46 2 35 9 -17 11 -25 11 -60 0z"/>
<path d="M1973 773 c4 -3 10 -3 14 0 3 4 0 7 -7 7 -7 0 -10 -3 -7 -7z"/>
<path d="M2563 743 c4 -3 10 -3 14 0 3 4 0 7 -7 7 -7 0 -10 -3 -7 -7z"/>
<path d="M2633 733 c4 -3 10 -3 14 0 3 4 0 7 -7 7 -7 0 -10 -3 -7 -7z"/>
<path d="M2553 723 c9 -2 23 -2 30 0 6 3 -1 5 -18 5 -16 0 -22 -2 -12 -5z"/>
<path d="M2633 713 c4 -3 10 -3 14 0 3 4 0 7 -7 7 -7 0 -10 -3 -7 -7z"/>
<path d="M3878 502 c-14 -3 -15 -8 -6 -33 12 -34 38 -39 38 -6 0 30 -11 44 -32 39z"/>
<path d="M3823 493 c4 -3 10 -3 14 0 3 4 0 7 -7 7 -7 0 -10 -3 -7 -7z"/>
<path d="M3860 440 c0 -7 3 -10 7 -7 3 4 3 10 0 14 -4 3 -7 0 -7 -7z"/>
<path d="M1283 353 c4 -3 10 -3 14 0 3 4 0 7 -7 7 -7 0 -10 -3 -7 -7z"/>
<path d="M3290 336 c0 -2 8 -10 18 -17 15 -13 16 -12 3 4 -13 16 -21 21 -21 13z"/>
<path d="M1390 299 c0 -5 5 -7 10 -4 6 3 10 8 10 11 0 2 -4 4 -10 4 -5 0 -10 -5 -10 -11z"/>
<path d="M1363 293 c-7 -3 -13 -12 -13 -21 0 -15 2 -15 17 1 18 18 16 27 -4 20z"/>
</g>


</svg>